<?xml version="1.0" encoding="UTF-8" standalone="no"?>
<svg
   viewBox="0 0 50 50"
   version="1.1"
   class="jsx-2263963463 artboard-inner"
   style="width: 300px; height: 300px; max-height: 100%;"
   id="svg3"
   sodipodi:docname="icon.svg"
   inkscape:export-filename="icon16.png"
   inkscape:export-xdpi="31.3344"
   inkscape:export-ydpi="31.3344"
   inkscape:version="1.4.2 (ebf0e940, 2025-05-08)"
   xmlns:inkscape="http://www.inkscape.org/namespaces/inkscape"
   xmlns:sodipodi="http://sodipodi.sourceforge.net/DTD/sodipodi-0.dtd"
   xmlns="http://www.w3.org/2000/svg"
   xmlns:svg="http://www.w3.org/2000/svg">
  <defs
     id="defs3" />
  <sodipodi:namedview
     id="namedview3"
     pagecolor="#ffffff"
     bordercolor="#000000"
     borderopacity="0.25"
     inkscape:showpageshadow="2"
     inkscape:pageopacity="0.0"
     inkscape:pagecheckerboard="0"
     inkscape:deskcolor="#d1d1d1"
     inkscape:zoom="5.8831284"
     inkscape:cx="27.196415"
     inkscape:cy="25.581628"
     inkscape:window-width="1800"
     inkscape:window-height="1038"
     inkscape:window-x="0"
     inkscape:window-y="40"
     inkscape:window-maximized="1"
     inkscape:current-layer="g3" />
  <g
     transform="translate(25 24.75) scale(1.4285714285714286)"
     id="lockup4-icon">
    <g
       fill="#FFFFFF"
       id="g3">
      <g
         transform="translate(-17.5 -17.325) scale(0.3431372549019608)"
         id="container">
        <g
           fill="#FFFFFF"
           id="g1">
          <polygon
             vector-effect="non-scaling-stroke"
             points="1 101 101 101 101 1 1 1"
             id="polygon1" />
        </g>
      </g>
      <g
         transform="matrix(0.33293515,0,0,0.33293515,-16.268084,-14.609843)"
         id="icon">
        <g
           fill="#ec1436"
           id="g2">
          <path
             d="M 78.191,14.750001 41.031,51.91 h 15.371 c 1.2695,0 2.296902,1.0273 2.296902,2.296898 0,0.171886 -0.01953,0.335942 -0.05469,0.496092 L 53.99581,80.97999 91.155815,43.819984 H 75.78481 c -1.2695,0 -2.296895,-1.027294 -2.296895,-2.296894 0,-0.17188 0.01954,-0.33594 0.05468,-0.49609 z M 3.296,94.324 c -1.2695,0 -2.2969,-1.0273 -2.2969,-2.29691 0,-1.26949 1.0273,-2.29689 2.2969,-2.29689 h 33.898 c 1.2695,0 2.2969,1.0273 2.2969,2.29689 0,1.26951 -1.0273,2.29691 -2.2969,2.29691 z M 8.5616,69.297 c -1.2695,0 -2.2969,-1.0273 -2.2969,-2.2969 0,-1.2696 1.0273,-2.2969 2.2969,-2.2969 h 33.898 c 1.2695,0 2.2969,1.0273 2.2969,2.2969 0,1.2656 -1.0273,2.2969 -2.2969,2.2969 z m 5.261699,-25.027003 c -1.269499,0 -2.296899,-1.027295 -2.296899,-2.296897 0,-1.2695 1.0273,-2.2969 2.296899,-2.2969 H 25.8313 c 1.2695,0 2.2969,1.0273 2.2969,2.2969 0,1.2695 -1.0273,2.296897 -2.2969,2.296897 z M 19.0889,19.243 c -1.2695,0 -2.2969,-1.0273 -2.2969,-2.2969 0,-1.2695 1.0273,-2.2969 2.2969,-2.2969 h 33.898 c 1.2695,0 2.2969,1.0273 2.2969,2.2969 0,1.2695 -1.0273,2.2969 -2.2969,2.2969 z m 14.773,33.34 46.238,-46.238 c 0.51172,-0.5078094 1.2539,-0.76953 2.0195,-0.63672 1.2461,0.2187506 2.082,1.4062 1.8672,2.6562 l -5.4609,30.859 h 18.176 c 0.58984,0 1.1758,0.22656 1.6211,0.67188 0.89844,0.89844 0.89844,2.3516 0,3.25 l -46.234005,46.234 c -0.511719,0.51172 -1.253899,0.76953 -2.019497,0.64062 -1.246098,-0.21874 -2.085896,-1.4062 -1.867203,-2.6562 l 5.457005,-30.859 h -18.176 c -0.58984,0 -1.1758,-0.22656 -1.6211,-0.671883 -0.89844,-0.898437 -0.89844,-2.347697 0,-3.246097 z"
             transform="translate(-1,-5.674)"
             id="path1" />
        </g>
      </g>
    </g>
  </g>
</svg>
